# xmcd CD database file
#
# Track frame offsets:
#	150
#	12480
#	26892
#	40432
#	54540
#	67680
#	83040
#	95177
#	110395
#	125233
#	139474
#	152064
#	164969
#	178794
#	192147
#	204370
#	218047
#	237037
#	250297
#	261684
#
# Disc length: 3662 seconds
#
# Revision: 0
# Processed by: cddbd v1.5.2PL0 Copyright (c) Steve Scherf et al.
# Submitted via: CDex 1.50beta10
#
DISCID=320e4c14
DTITLE=Muddy Waters - Rolling Stone Blues
DYEAR=2012
DGENRE=Blues
TTITLE0=I Can't Be Satisfied
TTITLE1=(I Feel Like) Going Home
TTITLE2=Rollin' And Tumblin'
TTITLE3=Rollin' Stone
TTITLE4=Louisiana Blues
TTITLE5=They Call Me Muddy Waters
TTITLE6=Long Distance Call
TTITLE7=Honey Bee
TTITLE8=Baby Please Don't Go
TTITLE9=Smokestack Lightning
TTITLE10=(I'm Your) Hoochie Coochie Man
TTITLE11=I Just Want To Make Love To You
TTITLE12=I'm Ready
TTITLE13=Manish Boy
TTITLE14=Trouble No More
TTITLE15=Young Fashioned Ways
TTITLE16=Got My Mojo Working
TTITLE17=I Got To Find My Baby
TTITLE18=Sugar Sweet
TTITLE19=Forty Days And Forty Nights
EXTD=YEAR: 2012
EXTT0=
EXTT1=
EXTT2=
EXTT3=
EXTT4=
EXTT5=
EXTT6=
EXTT7=
EXTT8=
EXTT9=
EXTT10=
EXTT11=
EXTT12=
EXTT13=
EXTT14=
EXTT15=
EXTT16=
EXTT17=
EXTT18=
EXTT19=
PLAYORDER=
